<svg width="1044" height="97" viewBox="0 0 1044 97" fill="none" xmlns="http://www.w3.org/2000/svg">
<path d="M166.801 71.7039C166.801 75.6461 169.996 78.8416 173.938 78.8416H208.31V94.4898H149.143V2.2149H166.801V71.7039ZM217.545 94.4898H286.32L282.795 78.8746H242.329C238.387 78.8746 235.191 75.679 235.191 71.7368V61.9745C235.191 58.0323 238.387 54.8368 242.329 54.8368H278.743V39.6388H242.329C238.387 39.6388 235.191 36.4433 235.191 32.501V24.9679C235.191 21.0257 238.387 17.8301 242.329 17.8301H283.047L286.572 2.2149H217.534V94.4898H217.545ZM334.154 58.4276H357.302C356.984 62.8091 355.853 66.6415 353.909 69.9139C351.713 73.5926 348.781 76.3928 345.113 78.2926C341.445 80.1923 337.371 81.1477 332.902 81.1477C327.697 81.1477 323.162 79.8848 319.307 77.3701C315.453 74.8555 312.488 71.1548 310.413 66.2682C308.337 61.3815 307.305 55.4517 307.305 48.4457C307.305 41.4397 308.359 35.2353 310.467 30.3377C312.576 25.4291 315.53 21.7614 319.34 19.3236C323.151 16.8858 327.62 15.6669 332.737 15.6669C336.471 15.6669 339.897 16.3367 343.005 17.6764C346.112 19.0161 348.726 21.0147 350.834 23.6721C352.943 26.3296 354.37 29.5361 355.128 33.2917L373.082 33.2587C372.149 26.5163 369.909 20.6633 366.34 15.6778C362.771 10.7034 358.115 6.8819 352.339 4.22445C346.574 1.56701 339.996 0.238281 332.606 0.238281C323.711 0.238281 315.969 2.18195 309.391 6.06929C302.814 9.95663 297.762 15.5351 294.248 22.7936C290.723 30.0522 288.966 38.5407 288.966 48.259C288.966 57.9774 290.679 66.4768 294.106 73.7464C297.532 81.0159 302.396 86.6273 308.7 90.5915C315.003 94.5557 322.393 96.5323 330.86 96.5323C336.647 96.5323 341.874 95.4671 346.563 93.4027C351.252 91.3382 354.788 88.0658 356.951 85.617C357.829 84.6177 359.488 85.2437 359.488 86.5834V94.4898H373.862V44.5913H334.165V58.4276H334.154ZM386.446 94.4898H404.104V2.2149H386.446V94.4898ZM413.24 17.8631H433.973C437.915 17.8631 441.111 21.0586 441.111 25.0009V94.4898H458.867V25.0009C458.867 21.0586 462.063 17.8631 466.005 17.8631H486.858V2.2149H413.24V17.8631ZM495.929 94.4898H513.587V2.2149H495.929V94.4898ZM571.82 61.0521L552.833 2.2149H527.401V94.4898H544.279C544.279 94.4898 543.961 60.7117 543.741 38.9799C543.708 35.8613 548.078 35.1475 549.056 38.1124C556.161 59.8003 567.581 94.4898 567.581 94.4898H582.263C582.263 94.4898 593.552 60.0089 600.59 38.3979C601.557 35.444 605.927 36.1468 605.905 39.2654C605.73 60.9752 605.532 94.5008 605.532 94.5008H622.344V2.2149H596.912L578.2 61.0411C577.212 64.1378 572.841 64.1488 571.842 61.0521H571.82ZM681.983 2.2149L715.937 94.4898H697.532L690.241 73.4938H653.092L645.921 94.4898H628.033L660.954 2.2149H681.983ZM685.168 58.9218C685.168 58.9218 677.81 36.9704 673.879 25.2315C673.11 22.9364 669.86 22.9474 669.113 25.2424C665.259 36.9923 658.066 58.9218 658.066 58.9218H685.179H685.168ZM703.012 17.8631H723.745C727.687 17.8631 730.882 21.0586 730.882 25.0009V94.4898H748.639V25.0009C748.639 21.0586 751.834 17.8631 755.777 17.8631H776.63V2.2149H703.012V17.8631ZM851.214 17.8301V2.2149H785.7V94.4898H850.962V78.8746H810.507C806.565 78.8746 803.369 75.679 803.369 71.7368V61.9745C803.369 58.0323 806.565 54.8368 810.507 54.8368H846.921V39.6388H810.507C806.565 39.6388 803.369 36.4433 803.369 32.501V24.9679C803.369 21.0257 806.565 17.8301 810.507 17.8301H851.225H851.214ZM997.374 32.7316C996.232 30.6562 994.453 28.9102 992.092 27.5705C991.817 27.4057 991.521 27.252 991.213 27.1092C993.025 25.9782 994.442 24.5177 995.452 22.7717C996.561 20.85 997.121 18.5878 997.121 16.0512C997.121 13.5145 996.528 11.1646 995.353 9.1001C994.167 7.01367 992.29 5.32257 989.764 4.07072C987.271 2.84082 984.076 2.2149 980.287 2.2149H957.205V54.8368H981.067C984.976 54.8368 988.314 54.2108 990.994 52.97C993.706 51.7181 995.76 49.9172 997.099 47.6111C998.428 45.327 999.098 42.5927 999.098 39.4851C999.098 37.0802 998.516 34.8071 997.374 32.7316ZM968.34 43.6579V34.4557C968.34 33.4783 969.141 32.6767 970.118 32.6767H980.298C981.956 32.6767 983.362 32.9183 984.482 33.4015C985.569 33.8737 986.382 34.5545 986.942 35.4879C987.502 36.4323 987.787 37.6402 987.787 39.0787C987.787 40.5173 987.513 41.6264 986.964 42.5598C986.426 43.4932 985.635 44.174 984.559 44.6682C983.45 45.1623 982.022 45.4149 980.331 45.4149H970.108C969.13 45.4149 968.329 44.6133 968.329 43.6359L968.34 43.6579ZM985.964 17.3909C985.964 18.7306 985.701 19.8836 985.196 20.806C984.691 21.7175 983.955 22.3873 982.934 22.8595C981.89 23.3427 980.573 23.5953 979.013 23.5953H970.108C969.13 23.5953 968.329 22.7936 968.329 21.8163V13.3718C968.329 12.3945 969.13 11.5928 970.108 11.5928H979.013C980.562 11.5928 981.879 11.8454 982.923 12.3396C983.933 12.8227 984.702 13.4926 985.207 14.3381C985.712 15.1947 985.964 16.2269 985.964 17.3909ZM1042.23 32.0837C1041.08 30.0412 1039.26 28.3062 1036.8 26.9116C1034.39 25.5499 1031.2 24.4408 1027.31 23.6392L1022.18 22.4862C1020.01 21.992 1018.29 21.432 1017.1 20.806C1015.95 20.2131 1015.14 19.5103 1014.67 18.7086C1014.2 17.907 1013.96 16.9077 1013.96 15.7327C1013.96 14.5578 1014.23 13.6793 1014.79 12.8776C1015.34 12.087 1016.22 11.472 1017.4 11.0328C1018.63 10.5716 1020.2 10.341 1022.06 10.341C1024.45 10.341 1026.39 10.6375 1027.8 11.2305C1029.15 11.8015 1030.16 12.636 1030.78 13.7232C1031.43 14.8542 1031.82 16.3257 1031.98 18.0937L1032.03 18.7086H1042.74L1042.7 18.0168C1042.54 14.5358 1041.7 11.505 1040.21 9.00127C1038.71 6.4756 1036.39 4.49898 1033.33 3.13732C1030.31 1.78663 1026.44 1.1058 1021.84 1.1058C1017.67 1.1058 1014.12 1.75369 1011.29 3.0275C1008.42 4.32328 1006.25 6.1242 1004.83 8.3973C1003.41 10.6594 1002.7 13.3059 1002.7 16.2489C1002.7 19.1918 1003.36 21.9371 1004.65 24.1004C1005.95 26.2527 1007.74 27.9987 1010 29.2835C1012.22 30.5464 1014.87 31.5127 1017.88 32.1716L1023.14 33.2697C1025.58 33.8627 1027.53 34.4776 1028.93 35.1145C1030.26 35.7185 1031.24 36.4542 1031.83 37.2778C1032.4 38.0795 1032.7 39.1007 1032.7 40.2977C1032.7 41.7033 1032.36 42.8892 1031.68 43.8226C1031 44.756 1029.98 45.4808 1028.63 45.953C1027.22 46.4581 1025.44 46.7107 1023.33 46.7107C1021.1 46.7107 1019.17 46.4142 1017.58 45.8322C1016.05 45.2721 1014.81 44.3058 1013.91 42.9661C1013 41.6154 1012.48 39.7266 1012.4 37.3547L1012.37 36.7178H1001.34V37.3876C1001.41 41.4836 1002.34 44.9537 1004.11 47.699C1005.87 50.4662 1008.43 52.5527 1011.7 53.9143C1014.92 55.254 1018.83 55.9349 1023.32 55.9349C1027.81 55.9349 1031.36 55.276 1034.45 53.9692C1037.56 52.6405 1039.97 50.7188 1041.58 48.2371C1043.19 45.7663 1044 42.7904 1044 39.4082C1044 36.575 1043.42 34.1152 1042.26 32.0727L1042.23 32.0837ZM883.411 44.7999C881.588 44.7999 880.106 43.3175 880.106 41.4946V2.20391H868.96V54.8258H903.177V44.7999H883.411ZM935.879 2.20391H923.262L904.495 54.8258H915.849L919.836 43.1528H939.536L943.588 54.8258H955.239L935.879 2.20391ZM928.895 15.8755C929.049 15.4033 929.488 15.3704 929.587 15.3704C929.708 15.3704 930.125 15.4033 930.279 15.8755L936.263 33.7309H923.042C923.998 30.8319 927.105 21.3661 928.895 15.8865V15.8755Z" fill="black"/>
<g clip-path="url(#clip0_2361_39)">
<path fill-rule="evenodd" clip-rule="evenodd" d="M92.0715 31.873V69.4566H64.1503C59.782 69.4566 55.822 66.8847 54.0426 62.8923L26.8801 2.0459H47.3881L71.7098 56.529C72.0092 57.2001 73.0095 56.9855 73.0095 56.2531V31.873H92.0715ZM92.0715 93.2611H59.2683C47.9801 93.2611 37.7465 86.6184 33.14 76.2968L0 2.0459H20.5114L48.1638 64.0097C51.0148 70.3968 57.3495 74.5118 64.3375 74.5118H92.0715V93.2611Z" fill="black"/>
</g>
<defs>
<clipPath id="clip0_2361_39">
<rect width="92.1974" height="91.2935" fill="white" transform="translate(0 2.0459)"/>
</clipPath>
</defs>
</svg>
